<svg xmlns="http://www.w3.org/2000/svg" xmlns:xlink="http://www.w3.org/1999/xlink" xmlns:serif="http://www.serif.com/" width="100%" height="100%" viewBox="0 0 503 123" xml:space="preserve" style="fill-rule:evenodd;clip-rule:evenodd;stroke-linejoin:round;stroke-miterlimit:2;">    <g transform="matrix(1,0,0,1,-3.20692,-68.5876)">        <g transform="matrix(0.620574,0,0,0.620574,1.67756,67.6512)">            <path d="M2.464,40.493L18.639,60.554L78.708,60.554L112.189,100.505L162.491,38.51L135.476,38.621L112.015,67.389L89.725,40.455L2.464,40.493Z" style="fill:rgb(255,122,77);"></path>        </g>        <g transform="matrix(0.620574,0,0,0.620574,1.67756,67.6512)">            <path d="M30.506,76.443L67.53,122.004L8.423,198.515L175.497,198.591L153.514,178.412L49.607,178.511L94.487,121.958L57.51,76.439L30.506,76.443Z" style="fill:white;"></path>        </g>        <g transform="matrix(0.620574,0,0,0.620574,1.67756,67.6512)">            <path d="M107.608,145.557L134.697,145.411L250.49,1.524L105.408,1.509L120.596,21.407L206.509,21.495L107.608,145.557Z" style="fill:rgb(97,206,112);"></path>        </g>        <g transform="matrix(4.2276,0,0,5.44426,-642.355,-761.872)">            <path d="M189.721,175.003L186.572,175.003L191.103,163.083L194.509,163.046L189.721,175.003ZM187.923,172.84L183.711,163.083L186.831,163.083L189.647,170.091L187.923,172.84Z" style="fill:white;fill-rule:nonzero;"></path>            <g transform="matrix(1,0,0,1,0.8252,0)">                <path d="M198.895,171.899C197.946,171.899 197.103,171.707 196.367,171.323C195.631,170.939 195.052,170.409 194.631,169.731C194.21,169.054 194.21,165.755 194.631,165.083C195.052,164.411 195.631,163.886 196.367,163.507C197.103,163.129 197.946,162.939 198.895,162.939C199.844,162.939 200.69,163.129 201.431,163.507C202.172,163.886 202.751,164.411 203.167,165.083C203.583,165.755 203.583,169.054 203.167,169.731C202.751,170.409 202.172,170.939 201.431,171.323C200.69,171.707 199.844,171.899 198.895,171.899ZM198.895,169.483C199.247,169.483 199.559,169.403 199.831,169.243C200.103,169.083 200.319,168.846 200.479,168.531C200.639,168.217 200.639,166.595 200.479,166.291C200.319,165.987 200.103,165.755 199.831,165.595C199.559,165.435 199.247,165.355 198.895,165.355C198.554,165.355 198.247,165.435 197.975,165.595C197.703,165.755 197.484,165.987 197.319,166.291C197.154,166.595 197.154,168.217 197.319,168.531C197.484,168.846 197.703,169.083 197.975,169.243C198.247,169.403 198.554,169.483 198.895,169.483Z" style="fill:white;fill-rule:nonzero;"></path>            </g>            <g transform="matrix(1,0,0,1,0.4126,0)">                <path d="M208.847,171.899C208.143,171.899 207.511,171.761 206.951,171.483C206.391,171.206 205.954,170.771 205.639,170.179C205.324,169.587 205.167,168.838 205.167,167.931L205.167,163.083L208.207,163.083L208.207,167.435C208.207,168.107 208.332,168.587 208.583,168.875C208.834,169.163 209.188,169.307 209.647,169.307C209.946,169.307 210.218,169.238 210.463,169.099C210.708,168.961 210.906,168.739 211.055,168.435C211.204,168.131 211.279,167.739 211.279,167.259L211.279,163.083L214.319,163.083L214.319,171.755L211.423,171.755L211.423,169.307L211.983,169.995C211.684,170.635 211.252,171.113 210.687,171.427C210.122,171.742 209.508,171.899 208.847,171.899Z" style="fill:white;fill-rule:nonzero;"></path>            </g>            <g transform="matrix(1,0,0,1,1.16499,0)">                <path d="M220.143,171.899C219.034,171.899 218.17,171.625 217.551,171.075C216.932,170.526 216.623,169.697 216.623,168.587L216.623,161.147L219.663,160.027L219.663,168.555C219.663,168.865 219.748,169.107 219.919,169.283C220.09,169.459 220.308,169.547 220.575,169.547C220.938,169.547 221.247,169.457 221.503,169.275L222.255,171.403C221.999,171.574 221.684,171.699 221.311,171.779C220.938,171.859 220.548,171.899 220.143,171.899ZM215.359,165.339L215.359,163.083L221.647,163.083L221.647,165.339L215.359,165.339Z" style="fill:white;fill-rule:nonzero;"></path>            </g>            <g transform="matrix(1,0,0,1,1.45623,0.144)">                <path d="M223.423,171.755L223.423,161.003L226.463,159.883L226.463,165.547L225.759,164.827C226.09,164.198 226.543,163.726 227.119,163.411C227.695,163.097 228.346,162.939 229.071,162.939C229.743,162.939 230.351,163.075 230.895,163.347C231.439,163.619 231.868,164.038 232.183,164.603C232.498,165.169 232.655,165.899 232.655,166.795L232.655,171.755L229.615,171.755L229.615,167.291C229.615,166.673 229.49,166.222 229.239,165.939C228.988,165.657 228.639,165.515 228.191,165.515C227.871,165.515 227.578,165.587 227.311,165.731C227.044,165.875 226.836,166.097 226.687,166.395C226.538,166.694 226.463,167.083 226.463,167.563L226.463,171.755L223.423,171.755Z" style="fill:white;fill-rule:nonzero;"></path>            </g>            <g transform="matrix(1,0,0,1,0.582494,0.144)">                <path d="M234.559,171.755L234.559,161.003L237.599,159.883L237.599,171.755L234.559,171.755Z" style="fill:rgb(255,122,77);fill-rule:nonzero;"></path>            </g>            <g transform="matrix(1,0,0,1,-0.364059,0.144)">                <path d="M239.567,171.755L239.567,163.649L242.607,163.652L242.607,171.755L239.567,171.755ZM242.439,162.578L239.743,162.586L239.743,160.195L242.431,160.196L242.439,162.578Z" style="fill:rgb(255,122,77);fill-rule:nonzero;"></path>            </g>            <g transform="matrix(1,0,0,1,-0.565049,-0.288046)">                <path d="M248.815,175.003C247.983,175.003 247.191,174.907 246.439,174.715C245.687,174.523 245.044,174.241 244.511,173.867L245.615,171.739C245.978,172.027 246.428,172.254 246.967,172.419C247.506,172.585 248.031,172.667 248.543,172.667C249.364,172.667 249.956,172.489 250.319,172.131C250.682,171.774 250.863,171.254 250.863,170.571L250.863,169.547L251.023,167.115L251.007,164.667L251.007,163.083L253.903,163.083L253.903,170.171C253.903,171.814 253.46,173.03 252.575,173.819C251.69,174.609 250.436,175.003 248.815,175.003ZM248.287,171.307C247.519,171.307 246.812,171.134 246.167,170.787C245.522,170.441 245.004,169.955 244.615,169.331C244.226,168.707 244.031,167.969 244.031,167.115C244.031,166.262 244.226,165.523 244.615,164.899C245.004,164.275 245.522,163.793 246.167,163.451C246.812,163.11 247.519,162.939 248.287,162.939C249.023,162.939 249.652,163.086 250.175,163.379C250.698,163.673 251.095,164.129 251.367,164.747C251.639,165.366 251.775,166.155 251.775,167.115C251.775,168.075 251.639,168.865 251.367,169.483C251.095,170.102 250.698,170.561 250.175,170.859C249.652,171.158 249.023,171.307 248.287,171.307ZM249.007,168.891C249.37,168.891 249.692,168.817 249.975,168.667C250.258,168.518 250.482,168.31 250.647,168.043C250.812,167.777 250.895,167.467 250.895,167.115C250.895,166.763 250.812,166.454 250.647,166.187C250.482,165.921 250.258,165.715 249.975,165.571C249.692,165.427 249.37,165.355 249.007,165.355C248.644,165.355 248.319,165.427 248.031,165.571C247.743,165.715 247.516,165.921 247.351,166.187C247.186,166.454 247.103,166.763 247.103,167.115C247.103,167.467 247.186,167.777 247.351,168.043C247.516,168.31 247.743,168.518 248.031,168.667C248.319,168.817 248.644,168.891 249.007,168.891Z" style="fill:rgb(255,122,77);fill-rule:nonzero;"></path>            </g>            <g transform="matrix(1,0,0,1,-1.44106,0.144)">                <path d="M255.855,171.755L255.855,161.003L258.895,159.883L258.895,165.547L258.191,164.827C258.522,164.198 258.975,163.726 259.551,163.411C260.127,163.097 260.778,162.939 261.503,162.939C262.175,162.939 262.783,163.075 263.327,163.347C263.871,163.619 264.3,164.038 264.615,164.603C264.93,165.169 265.087,165.899 265.087,166.795L265.087,171.755L262.047,171.755L262.047,167.291C262.047,166.673 261.922,166.222 261.671,165.939C261.42,165.657 261.071,165.515 260.623,165.515C260.303,165.515 260.01,165.587 259.743,165.731C259.476,165.875 259.268,166.097 259.119,166.395C258.97,166.694 258.895,167.083 258.895,167.563L258.895,171.755L255.855,171.755Z" style="fill:rgb(255,122,77);fill-rule:nonzero;"></path>            </g>            <g transform="matrix(1,0,0,1,-1.41073,0)">                <path d="M270.863,171.899C269.754,171.899 268.89,171.625 268.271,171.075C267.652,170.526 267.343,169.697 267.343,168.587L267.343,161.295L270.383,160.027L270.383,168.555C270.383,168.865 270.468,169.107 270.639,169.283C270.81,169.459 271.028,169.547 271.295,169.547C271.658,169.547 271.967,169.457 272.223,169.275L272.975,171.403C272.719,171.574 272.404,171.699 272.031,171.779C271.658,171.859 271.268,171.899 270.863,171.899ZM266.079,165.339L266.079,163.083L272.367,163.083L272.367,165.339L266.079,165.339Z" style="fill:rgb(255,122,77);fill-rule:nonzero;"></path>            </g>        </g>    </g></svg>